<svg width="360" height="360" xmlns="http://www.w3.org/2000/svg" xml:space="preserve" style="enable-background:new 0 0 360 360;" version="1.1">
 <g>
  <title>background</title>
  <rect fill="none" id="canvas_background" height="362" width="362" y="-1" x="-1"/>
 </g>

 <g>
  <title>Layer 1</title>
  <g id="svg_1">
   <g id="svg_2">
    <path id="svg_4" fill-rule="evenodd" clip-rule="evenodd" fill="#4D914A" d="m110.286,153.762c2.381,-2.104 4.687,0.386 7.13,0.111c11.376,-1.276 20.018,-6.086 23.506,-17.631c4.752,-15.727 5.035,-31.22 -3.893,-45.741c-4.844,-7.879 -12.198,-12.836 -21.48,-12.38c-19.752,0.971 -37.104,7.366 -48.601,24.873c-2.243,3.415 -3.677,7.08 -4.114,11.11c-1.414,13.022 -1.094,25.936 2.643,38.609c0.094,0.318 0.236,0.624 0.327,0.943c0.549,1.948 1.396,4.501 -0.106,5.699c-1.904,1.52 -3.436,-1.072 -5.024,-2.049c-7.925,-4.871 -12.234,-12.252 -15.04,-20.935c-6.697,-20.725 -6.932,-40.896 4.447,-60.198c6.887,-11.683 17.551,-18.815 29.787,-23.889c13.841,-5.738 28.194,-10.188 43.208,-7.575c23.234,4.044 38.735,18.109 46.77,40.16c4.288,11.768 6.999,23.729 5.612,36.624c-1.999,18.585 -12.177,30.721 -27.931,39.153c-5.272,2.822 -10.59,5.545 -16.396,7.207c-6.7,1.918 -11.537,6.395 -15.617,11.842c-0.958,1.278 -1.405,3.136 -3.428,3.342c-2.95,-5.083 -1.765,-10.847 -2.405,-16.268c-0.5,-4.228 -1.278,-8.761 0.605,-13.007z" style="fill-rule:evenodd;clip-rule:evenodd;fill:#4D914A;"/>
    <path id="svg_5" fill-rule="evenodd" clip-rule="evenodd" fill="#564538" d="m110.286,153.762c0.6,9.76 1.199,19.519 1.798,29.277c-1.172,3.88 -1.438,7.895 -1.244,11.88c0.715,14.642 0.637,29.305 1.573,43.949c0.581,9.104 -0.075,18.293 -0.31,27.44c-0.294,11.466 0.727,22.944 -0.766,34.406c-1.005,7.716 -3.229,14.521 -11.384,17.093c-8.658,2.729 -16.059,-0.467 -22.411,-6.282c-2.208,-2.021 -3.28,-4.846 -3.756,-7.973c-2.294,-15.055 0.296,-29.91 1.641,-44.809c2.667,-29.566 3.429,-59.169 2.87,-88.852c-0.3,-15.953 -0.928,-31.985 1.621,-47.868c0.235,-1.466 0.542,-2.956 1.078,-4.331c2.378,-6.095 6.68,-6.667 10.772,-1.499c8.866,11.197 16.178,23.157 18.518,37.569z" style="fill-rule:evenodd;clip-rule:evenodd;fill:#564538;"/>
    <path id="svg_6" fill-rule="evenodd" clip-rule="evenodd" fill="#fff" d="m253.521,237.898c3.487,-8.704 10.945,-14.413 16.186,-21.77c5.665,-7.954 11.859,-15.532 17.867,-23.24c3.665,-4.702 8.202,-4.363 11.822,0.63c1.753,2.419 2.421,5.028 2.42,7.92c-0.005,19.322 2.214,38.984 -0.687,57.86c-2.425,15.78 -0.889,31.239 -2.079,46.784c-0.238,3.111 -2.429,3.841 -4.596,4.438c-4.549,1.254 -9.229,1.214 -13.824,0.229c-3.218,-0.688 -5.049,-2.392 -4.916,-6.262c0.299,-8.651 0.016,-17.321 0.141,-25.98c0.037,-2.61 -0.403,-3.87 -3.474,-3.906c-3.032,-0.035 -3.478,1.118 -3.436,3.744c0.142,8.659 -0.181,17.331 0.155,25.979c0.16,4.128 -1.76,5.744 -5.231,6.419c-1.789,0.348 -3.62,0.58 -5.44,0.647c-10.99,0.401 -12.726,-1.252 -12.726,-11.954c0,-9.161 0.643,-18.382 -0.188,-27.467c-0.771,-8.423 -1.992,-16.765 -1.918,-25.277c0.035,-3.991 0.832,-5.42 5.125,-5.308c11.818,0.308 23.65,0.149 35.476,0.046c1.338,-0.012 3.876,1.191 3.778,-1.592c-0.08,-2.261 -2.338,-1.271 -3.604,-1.284c-8.66,-0.094 -17.322,-0.019 -25.983,-0.077c-1.604,-0.008 -3.323,0.529 -4.868,-0.579z" style="fill-rule:evenodd;clip-rule:evenodd;fill:#fff;"/>
    <path id="svg_7" fill-rule="evenodd" clip-rule="evenodd" fill="#BAB7AF" d="m214.943,281.825c0.263,4.888 -0.364,9.656 -1.856,14.285c-1.619,5.024 -6.311,8.262 -10.876,7.674c-4.571,-0.589 -7.043,-4.208 -7.29,-10.37c-0.24,-5.977 -0.473,-11.961 -0.992,-17.918c-0.767,-8.813 -6.021,-12.401 -13.409,-9.568c-3.421,1.313 -4.874,3.989 -5.328,7.219c-0.9,6.408 -1.653,12.845 -2.211,19.292c-0.491,5.668 -5.599,12.073 -11.094,13.423c-6.3,1.547 -11.468,-2.606 -11.922,-9.212c-0.559,-8.123 -0.485,-16.195 -0.253,-24.346c0.396,-13.924 -0.385,-27.892 -2.483,-41.734c-0.599,-3.952 -0.684,-7.965 0.941,-11.809c1.441,-3.411 3.56,-6.29 7.446,-6.566c3.509,-0.25 5.727,2.245 7.471,5.044c1.848,2.965 3.783,5.881 5.512,8.913c2.767,4.85 7.042,6.644 12.229,5.519c6.162,-1.336 11.998,0.081 17.646,1.808c5.293,1.619 8.67,5.672 10.649,11.096c4.406,12.073 4.999,24.667 5.82,37.25z" style="fill-rule:evenodd;clip-rule:evenodd;fill:#BAB7AF;"/>
    <path id="svg_8" fill-rule="evenodd" clip-rule="evenodd" fill="#BEB371" d="m265.938,104.938c3.387,-5.103 6.923,-10.086 10.95,-14.724c1.266,-1.457 2.596,-2.793 4.434,-2.949c9.715,-0.83 19.138,-0.506 27.044,6.545c3.434,3.063 6.77,5.93 9.314,9.992c5.021,8.017 5.119,15.41 -0.602,22.899c-1.002,1.312 -1.971,2.656 -3.059,3.895c-3.277,3.729 -5.457,7.549 -5.06,13.021c0.598,8.22 0.156,16.516 0.156,25.418c-3.867,-1.112 -6.037,-2.949 -7.987,-5.138c-3.51,-0.948 -5.963,-3.591 -8.79,-5.595c-12.092,-8.569 -23.948,-17.463 -35.927,-26.188c-1.633,-1.189 -2.531,-3.108 -4.407,-3.968c-5.794,-2.854 -10.456,-7.222 -16.072,-11.4c9.14,-4.291 18.08,-6.954 26.929,-9.861c0.574,-0.333 1.333,-0.609 1.835,-0.374c2.886,1.349 0.404,-1.407 1.242,-1.573z" style="fill-rule:evenodd;clip-rule:evenodd;fill:#BEB371;"/>
    <path id="svg_9" fill-rule="evenodd" clip-rule="evenodd" fill="#fff" d="m194.294,194.96c9.752,-0.298 15.396,7.063 22.104,12.201c2.927,2.241 4.37,2.107 6.267,-0.717c1.558,-2.32 3.576,-4.346 5.016,-6.729c5.281,-8.741 12.855,-12.521 23.02,-11.32c2.181,0.258 5.043,0.757 4.4,-3.194c0.354,-2.675 1.213,-4.68 4.57,-4.325c6.56,0.693 12.96,2.272 19.446,3.366c1.322,0.224 3.015,0.696 2.863,2.752c-0.829,6.167 -5.752,9.765 -9.143,14.267c-8.825,11.718 -17.901,23.246 -26.908,34.826c-0.47,0.604 -1.227,0.983 -2.61,2.058c0,-10.567 0,-20.37 0,-31.514c-5.167,6.473 -9.419,11.846 -13.722,17.178c-4.215,5.223 -9.388,5.92 -14.747,1.898c-6.035,-4.528 -11.906,-9.275 -18,-13.722c-3.838,-2.801 -7.242,-5.742 -7.824,-10.817c1.683,-2.131 2.913,-4.646 5.268,-6.208z" style="fill-rule:evenodd;clip-rule:evenodd;fill:#fff;"/>
    <path id="svg_10" fill-rule="evenodd" clip-rule="evenodd" fill="#F9F6E5" d="m281.979,186.994c-1.833,-2.574 -4.762,-1.696 -7.216,-2.207c-4.81,-1.001 -9.68,-1.713 -14.501,-2.668c-2.753,-0.545 -4.63,0.063 -5.163,3.082c1.148,-5.342 -3.713,-7.717 -5.942,-11.202c-7.012,-10.963 -7.354,-31.081 1.226,-41.146c0.979,-1.147 2.967,-2.513 1.622,-4.706c6.312,2.659 11.064,7.608 16.578,11.43c10.327,7.156 20.34,14.768 30.461,22.221c0.785,0.577 1.394,1.395 2.085,2.101c-3.625,5.995 -6.021,12.827 -11.844,17.326c-2.455,1.896 -4.872,3.844 -7.306,5.769z" style="fill-rule:evenodd;clip-rule:evenodd;fill:#F9F6E5;"/>
    <path id="svg_11" fill-rule="evenodd" clip-rule="evenodd" fill="#fff" d="m194.294,194.96c-1.046,2.674 -2.129,5.316 -5.271,6.208c-3.986,0.004 -7.976,0.019 -11.964,0.008c-2.747,-0.007 -5.071,-1.011 -7.297,-2.651c-2.049,-1.509 -1.289,-2.533 -0.01,-3.927c1.144,-1.246 1.654,-3.591 4.072,-1.531c3.594,3.062 7.96,1.483 12.003,1.827c1.567,0.134 1.877,-0.571 1.568,-2.106c-0.809,-4.024 -0.912,-8.31 -4.523,-11.163c-2.703,-2.137 -0.129,-3.441 0.788,-4.893c1.18,-1.868 2.761,-1.344 4.041,-0.102c2.043,1.98 3.656,4.26 4.236,7.151c0.75,3.734 1.568,7.453 2.357,11.179z" style="fill-rule:evenodd;clip-rule:evenodd;fill:#fff;"/>
    <path id="svg_12" fill-rule="evenodd" clip-rule="evenodd" fill="#D0C999" d="m265.938,104.938c0.888,1.038 1.776,2.076 2.909,3.399c-2.269,-0.55 -4.127,-1 -5.984,-1.451c1.024,-0.65 2.049,-1.299 3.075,-1.948z" style="fill-rule:evenodd;clip-rule:evenodd;fill:#D0C999;"/>
    <path id="svg_13" fill-rule="evenodd" clip-rule="evenodd" fill="#FEFEFE" d="m291.407,207.446c0,6.205 0,12.41 0,18.614c-0.306,0.003 -0.611,0.006 -0.916,0.009c0,-6.219 0,-12.438 0,-18.657c0.305,0.012 0.611,0.024 0.916,0.034z" style="fill-rule:evenodd;clip-rule:evenodd;fill:#FEFEFE;"/>
    <path id="svg_14" fill-rule="evenodd" clip-rule="evenodd" fill="#CBC38E" d="m286.836,121.654c-1.998,-0.034 -2.816,-0.743 -3.135,-2.256c1.517,-0.078 2.508,0.42 3.135,2.256z" style="fill-rule:evenodd;clip-rule:evenodd;fill:#CBC38E;"/>
    <path id="svg_15" fill-rule="evenodd" clip-rule="evenodd" fill="#CBC28D" d="m294.213,127.102c1.875,0.407 3.438,0.729 3.19,1.844c-0.349,1.563 -1.389,0.347 -2.028,-0.146c-0.346,-0.266 -0.527,-0.745 -1.162,-1.698z" style="fill-rule:evenodd;clip-rule:evenodd;fill:#CBC28D;"/>
    <path id="svg_16" fill-rule="evenodd" clip-rule="evenodd" fill="#D1C99A" d="m274.734,113.669c-1.485,-0.839 -2.437,-1.412 -2.407,-3.228c1.34,0.623 2.205,1.245 2.407,3.228z" style="fill-rule:evenodd;clip-rule:evenodd;fill:#D1C99A;"/>
    <path id="svg_17" fill-rule="evenodd" clip-rule="evenodd" fill="#CBC28D" d="m275.699,114.793c0.788,-0.749 1.113,-1.101 1.142,-1.078c0.501,0.397 1.119,0.759 1.399,1.292c0.358,0.681 -0.221,0.855 -0.754,0.666c-0.614,-0.219 -1.179,-0.573 -1.787,-0.88z" style="fill-rule:evenodd;clip-rule:evenodd;fill:#CBC28D;"/>
   </g>
  </g>
 </g>
</svg>